<?xml version="1.0" standalone="no"?>
<!DOCTYPE svg PUBLIC "-//W3C//DTD SVG 20010904//EN"
 "http://www.w3.org/TR/2001/REC-SVG-20010904/DTD/svg10.dtd">
<svg version="1.0" xmlns="http://www.w3.org/2000/svg"
 width="1040.000000pt" height="1400.000000pt" viewBox="0 0 1040.000000 1400.000000"
 preserveAspectRatio="xMidYMid meet">

<g transform="translate(0.000000,1400.000000) scale(0.100000,-0.100000)"
fill="#000000" stroke="none">
<path d="M6640 9600 c0 -14 15 -19 29 -11 9 6 7 10 -8 14 -12 3 -21 1 -21 -3z"/>
<path d="M6694 9569 c-3 -6 -15 -9 -25 -6 -15 4 -19 0 -19 -21 0 -31 29 -294
33 -298 12 -11 83 -22 93 -13 8 7 15 6 20 -2 4 -8 3 -9 -4 -5 -7 4 -12 2 -12
-3 0 -14 17 -14 25 -1 4 6 12 7 18 3 7 -4 22 -6 33 -5 12 2 24 -4 28 -13 3 -9
10 -13 16 -10 6 4 7 12 4 18 -4 7 1 4 11 -5 16 -15 17 -19 4 -35 -13 -17 -13
-17 5 -3 23 18 44 21 53 8 3 -7 1 -8 -5 -4 -7 4 -12 2 -12 -3 0 -10 29 -16 53
-12 5 1 6 -3 2 -9 -3 -6 -11 -8 -16 -5 -5 3 -6 -1 -2 -10 3 -9 9 -13 12 -8 12
16 34 14 27 -2 -4 -11 -2 -15 6 -12 7 2 22 0 33 -6 l20 -10 -20 23 -20 23 27
-18 c15 -9 25 -22 22 -27 -4 -6 0 -15 7 -20 11 -8 10 -8 -4 -4 -12 4 -17 2
-14 -6 2 -7 11 -12 20 -12 9 1 15 -2 14 -6 -1 -4 34 -36 78 -72 112 -90 230
-218 304 -329 l63 -94 -7 84 c-12 149 -69 314 -141 409 -49 63 -186 202 -255
257 -164 132 -409 273 -450 260 -15 -5 -19 -4 -15 4 4 6 5 11 2 11 -3 0 -8 -5
-12 -11z"/>
<path d="M5226 9502 c-2 -4 -16 -50 -31 -102 -14 -52 -28 -103 -31 -112 -3
-10 -10 -18 -15 -18 -6 0 -8 4 -5 9 4 5 3 11 -1 14 -5 2 -2 2 5 1 18 -5 15 3
-17 36 -26 27 -49 41 -37 22 2 -4 -4 -8 -15 -8 -19 0 -20 1 -2 14 13 10 14 16
6 19 -7 3 -13 9 -13 14 0 6 4 7 10 4 5 -3 7 0 5 7 -3 8 -14 14 -25 14 -15 0
-17 -3 -7 -16 11 -13 10 -13 -5 -1 -10 7 -18 19 -18 25 0 6 -10 22 -21 36 -11
14 -18 19 -14 13 7 -16 -5 -16 -39 -3 -27 10 -34 8 -187 -63 -37 -17 -56 -32
-56 -44 0 -28 16 -42 45 -37 15 2 23 1 17 -3 -5 -5 -11 -15 -11 -23 -1 -8 -5
-24 -9 -35 -6 -18 -5 -18 5 -2 6 9 16 14 22 11 7 -5 9 0 6 14 -4 15 -2 22 7
22 21 0 11 -52 -11 -62 -17 -7 -16 -8 3 -4 15 3 20 0 16 -10 -3 -8 -10 -11
-16 -7 -6 3 -7 1 -3 -6 6 -9 11 -9 22 0 11 9 14 9 14 -1 0 -8 6 -9 18 -5 25
11 75 6 89 -9 4 -5 -8 -6 -27 -3 -30 4 -36 2 -37 -14 -2 -16 2 -17 17 -9 15 8
19 7 16 -2 -1 -7 -1 -9 2 -5 2 5 15 13 29 18 19 7 28 6 37 -6 9 -12 18 -13 49
-4 34 9 40 8 56 -12 21 -26 39 -19 36 14 -2 19 2 24 19 23 24 -1 24 0 -4 -146
-10 -52 -17 -96 -15 -98 2 -2 61 21 132 51 103 44 260 102 493 183 9 3 -62 55
-181 133 -279 183 -307 198 -323 173z m-389 -264 c2 -18 0 -20 -7 -8 -12 18
-13 30 -2 30 4 0 9 -10 9 -22z"/>
<path d="M4566 9295 c-3 -9 -13 -15 -20 -12 -8 3 -17 -1 -20 -9 -3 -8 -1 -14
4 -14 6 0 10 -7 10 -15 0 -12 4 -14 17 -7 11 7 21 5 31 -4 10 -10 19 -11 32
-4 22 12 43 13 37 3 -3 -5 3 -16 13 -26 17 -17 17 -17 13 6 -4 19 0 26 18 30
20 5 21 8 8 23 -9 12 -10 15 -1 10 6 -4 12 -3 12 3 0 6 -12 10 -27 11 -73 1
-109 6 -114 13 -3 5 -9 1 -13 -8z"/>
<path d="M3945 9290 c-3 -5 -1 -10 4 -10 6 0 11 5 11 10 0 6 -2 10 -4 10 -3 0
-8 -4 -11 -10z"/>
<path d="M3914 9258 c-3 -4 5 -9 18 -9 17 -1 18 -3 6 -6 -10 -2 -18 -10 -18
-16 0 -7 -4 -6 -10 3 -7 12 -17 7 -52 -29 -23 -25 -34 -42 -24 -38 14 5 17 3
12 -8 -3 -9 0 -15 10 -15 9 0 12 -5 8 -12 -5 -9 -2 -9 9 1 16 13 22 8 18 -13
-1 -5 5 -4 13 4 13 10 16 10 16 -1 0 -11 2 -11 10 1 8 12 12 12 18 2 6 -9 9
-2 10 20 0 18 -5 39 -11 47 -9 11 -9 15 1 18 6 3 12 18 12 33 0 23 -4 28 -21
27 -11 -1 -23 -5 -25 -9z"/>
<path d="M4690 9216 c0 -2 7 -9 15 -16 13 -11 14 -10 9 4 -5 14 -24 23 -24 12z"/>
<path d="M4218 9146 c-189 -88 -228 -109 -228 -126 -1 -12 -2 -12 -11 3 -5 9
-14 17 -19 17 -4 0 -43 -30 -87 -67 -182 -158 -206 -170 -245 -131 -19 19 -20
19 -44 -7 -13 -15 -21 -31 -18 -37 4 -6 2 -8 -4 -5 -14 9 -43 -3 -36 -14 3 -5
0 -9 -5 -9 -6 0 -11 -7 -11 -15 0 -8 -5 -15 -12 -15 -6 0 -8 -3 -5 -6 3 -4 -5
-15 -18 -26 -14 -11 -23 -24 -19 -29 3 -5 2 -9 -3 -8 -19 3 -27 -2 -14 -10 11
-7 10 -13 -3 -33 -9 -14 -14 -27 -11 -29 2 -3 -16 -20 -40 -39 -25 -20 -57
-60 -75 -92 -17 -32 -43 -72 -57 -89 -15 -17 -35 -55 -45 -83 -18 -48 -19 -91
-18 -676 1 -343 2 -626 4 -627 2 -2 54 86 116 194 63 109 166 288 230 398 64
110 183 319 264 465 81 146 160 276 176 290 16 14 90 61 165 104 74 44 133 81
130 84 -2 3 -11 0 -18 -7 -12 -9 -13 -5 -4 29 10 36 27 55 27 31 0 -12 52 3
82 23 21 15 18 21 -7 16 -5 -1 -4 4 3 11 19 20 14 31 -7 19 -27 -14 -48 -13
-48 4 0 8 17 23 37 32 37 18 45 45 12 39 -9 -2 -21 -4 -27 -4 -5 -1 -3 -5 5
-11 21 -13 4 -25 -43 -29 -4 -1 -7 -9 -5 -18 2 -11 -5 -19 -17 -21 -11 -3 -23
-9 -27 -16 -5 -6 -8 0 -8 14 0 21 -18 64 -21 50 0 -3 -2 -13 -4 -22 -2 -10 1
-18 6 -18 18 0 8 -18 -13 -23 -18 -5 -19 -8 -8 -22 7 -8 15 -13 19 -10 3 3 -1
10 -9 15 -8 6 -10 10 -4 10 6 0 17 -7 24 -15 10 -12 9 -16 -5 -22 -11 -4 -22
0 -29 9 -7 9 -23 14 -40 12 -25 -3 -28 0 -23 22 4 24 3 24 -14 8 -19 -17 -27
-6 -9 12 6 6 -1 11 -22 12 -30 2 -31 2 -14 -11 19 -14 14 -43 -5 -31 -5 3 -6
10 -3 16 5 7 2 8 -7 2 -8 -4 -20 -9 -27 -10 -10 -2 -11 1 -1 12 6 8 9 17 5 21
-3 3 -6 1 -6 -6 0 -7 -4 -9 -10 -6 -5 3 -10 1 -10 -6 0 -21 -12 -1 -17 28 -10
56 -13 269 -5 298 7 23 14 29 31 28 15 -2 20 1 15 10 -5 8 -3 8 9 -2 9 -7 14
-17 11 -22 -3 -5 2 -9 11 -9 9 0 14 -4 11 -8 -3 -5 1 -9 8 -9 8 0 12 6 9 14
-3 7 2 13 11 13 12 0 14 -5 6 -25 -5 -14 -6 -25 -1 -25 5 0 12 10 16 23 4 13
8 17 11 10 4 -10 13 -9 36 3 16 8 33 13 36 9 3 -3 -3 -8 -15 -11 -13 -4 -20
-11 -16 -20 3 -8 -1 -14 -9 -14 -7 0 -14 -9 -15 -20 -1 -11 4 -20 13 -20 8 0
14 6 14 14 0 8 5 18 12 22 7 5 8 3 3 -6 -6 -10 -4 -12 8 -7 12 4 15 1 12 -15
-3 -11 0 -29 6 -39 7 -13 6 -19 -1 -19 -6 0 -8 -4 -5 -10 3 -5 1 -10 -5 -10
-6 0 -9 10 -7 23 2 12 2 16 0 9 -3 -7 -8 -10 -11 -8 -4 2 -7 -8 -8 -24 -1 -23
2 -27 20 -22 12 3 27 9 34 15 8 6 12 6 12 -1 0 -6 8 -9 17 -8 10 2 24 -3 31
-11 8 -8 17 -11 21 -8 3 4 -2 12 -11 19 -10 7 -15 16 -11 19 11 11 23 8 21 -5
-2 -8 7 -13 22 -12 21 1 25 -4 25 -28 1 -20 -4 -28 -17 -28 -10 0 -18 -4 -18
-10 0 -11 7 -12 35 -1 14 6 24 2 37 -13 10 -12 18 -16 17 -11 -1 6 0 13 1 18
1 4 3 12 4 17 0 6 6 9 11 8 6 -2 9 -6 7 -11 -3 -10 21 -4 30 7 12 18 36 15 31
-4 -3 -10 0 -21 6 -24 6 -4 11 -1 11 7 0 13 5 13 41 1 22 -8 45 -11 51 -8 7 5
9 1 5 -9 -4 -11 -2 -14 8 -10 8 3 12 10 8 16 -3 6 -1 7 5 3 6 -4 90 35 186 86
96 51 168 95 160 96 -13 3 -13 6 -2 20 11 13 11 14 0 8 -16 -10 -42 11 -42 33
1 14 2 14 14 -2 12 -15 14 -16 20 -2 3 9 0 15 -8 15 -7 0 -19 6 -25 14 -6 8
-20 16 -31 19 -14 3 -17 0 -13 -12 4 -14 4 -14 -6 1 -7 10 -19 14 -31 11 -16
-4 -20 0 -20 20 0 14 7 28 16 31 15 6 15 4 3 -11 -9 -10 -9 -14 -2 -10 7 5 25
0 40 -10 15 -10 24 -12 20 -5 -5 7 -3 12 3 12 7 0 5 6 -4 15 -8 8 -18 15 -22
15 -3 0 -1 -7 6 -15 9 -10 9 -15 1 -15 -6 0 -12 5 -12 10 -1 6 -2 16 -3 23 -1
6 -7 11 -14 10 -13 -3 -16 9 -5 20 3 4 12 -1 19 -11 10 -14 15 -15 25 -4 11
10 10 12 -5 12 -9 0 -15 4 -12 9 3 5 0 11 -8 14 -8 3 -17 -1 -20 -9 -5 -12
-10 -13 -27 -4 -11 7 -23 9 -27 6 -3 -3 0 -6 7 -6 7 0 9 -5 5 -12 -5 -7 -2 -9
8 -6 9 4 15 0 15 -8 0 -16 -13 -19 -22 -4 -3 6 -15 10 -26 10 -11 0 -18 -4
-15 -9 3 -5 -3 -11 -14 -14 -11 -3 -18 -1 -14 4 3 5 -1 9 -8 9 -9 0 -10 2 -2
8 9 5 8 11 -2 20 -12 11 -14 9 -14 -7 0 -27 -15 -34 -30 -15 -11 12 -15 12
-21 2 -6 -9 -9 -6 -9 9 0 13 -9 27 -22 33 -21 10 -21 10 -5 -3 16 -14 16 -15
0 -28 -10 -7 -15 -9 -11 -5 5 5 -6 18 -22 28 -37 22 -41 22 -33 2 5 -14 3 -15
-18 -3 -13 7 -25 10 -26 8 -1 -2 -12 4 -23 14 -11 9 -31 17 -45 17 -14 0 -25
4 -25 9 0 6 -9 8 -19 6 -12 -2 -18 1 -15 8 2 8 -8 13 -30 14 -23 1 -72 -16
-148 -51z m580 -120 c3 -11 -1 -17 -9 -14 -7 2 -13 12 -15 22 -3 23 20 15 24
-8z m122 -36 c0 -5 -4 -10 -10 -10 -5 0 -10 5 -10 10 0 6 5 10 10 10 6 0 10
-4 10 -10z m-673 -118 c-19 -21 -11 -38 9 -21 8 6 21 9 29 5 13 -5 13 -8 -2
-26 -10 -11 -19 -16 -21 -10 -2 5 -10 10 -17 10 -7 0 -16 7 -19 16 -7 18 10
44 27 44 5 0 3 -8 -6 -18z m149 -81 c-4 -5 -2 -11 4 -13 5 -2 6 -9 1 -17 -6
-9 -14 -11 -26 -4 -16 9 -16 11 0 26 18 18 30 23 21 8z m-151 -231 c3 -5 -1
-10 -9 -10 -9 0 -16 5 -16 10 0 6 4 10 9 10 6 0 13 -4 16 -10z"/>
<path d="M4740 9190 c0 -5 5 -10 11 -10 5 0 7 5 4 10 -3 6 -8 10 -11 10 -2 0
-4 -4 -4 -10z"/>
<path d="M6190 9189 c-249 -18 -517 -96 -900 -259 -256 -109 -412 -187 -740
-368 -411 -226 -489 -273 -518 -308 -15 -18 -65 -102 -111 -186 -46 -84 -153
-270 -236 -413 -83 -143 -212 -363 -285 -489 l-133 -228 17 -34 c36 -76 12
-160 -58 -203 -20 -13 -38 -32 -41 -44 -8 -32 -61 -33 -69 -2 -5 20 -71 65
-95 65 -5 0 -98 -38 -205 -85 -108 -47 -202 -83 -208 -79 -7 5 -8 3 -3 -6 6
-10 4 -12 -9 -7 -9 4 -15 3 -12 -2 7 -11 -53 -33 -67 -24 -5 3 -7 1 -4 -4 8
-12 -16 -24 -36 -19 -6 1 -8 1 -4 -2 6 -3 -257 -132 -270 -132 -2 0 -3 -14 -3
-30 0 -104 -115 -162 -211 -108 -42 23 -41 24 -141 -17 -14 -5 -18 -2 -18 14
0 12 -4 21 -10 21 -28 0 -3 29 45 53 46 22 55 31 55 53 0 40 30 94 63 114 16
10 49 21 73 25 38 5 49 3 79 -21 25 -19 42 -25 60 -20 47 12 767 337 793 358
6 6 12 26 12 46 0 45 31 94 73 117 32 17 35 22 41 84 9 104 7 1091 -3 1091
-18 0 -70 -70 -82 -110 -7 -22 -25 -52 -41 -67 -16 -16 -39 -48 -52 -73 -13
-25 -38 -58 -55 -75 -18 -16 -43 -48 -56 -71 -13 -23 -31 -44 -39 -47 -8 -3
-22 -21 -31 -39 -10 -18 -38 -54 -63 -80 -26 -25 -54 -54 -62 -63 -8 -9 -28
-29 -45 -45 -16 -16 -41 -41 -55 -56 -14 -14 -48 -47 -76 -72 -28 -26 -69 -63
-91 -83 -21 -20 -49 -40 -61 -43 -12 -4 -22 -11 -22 -17 0 -5 -19 -21 -43 -36
-23 -15 -56 -39 -73 -53 -17 -14 -44 -32 -60 -42 -16 -9 -67 -39 -114 -68 -47
-28 -150 -83 -230 -121 -80 -39 -153 -75 -162 -80 -31 -16 -253 -101 -298
-115 -110 -32 -174 -60 -192 -85 -18 -24 -19 -52 -19 -745 l0 -719 23 -19 c19
-16 34 -18 93 -12 39 3 93 12 122 21 28 8 85 22 125 30 115 22 404 97 434 112
10 6 35 13 54 17 42 7 229 67 320 102 441 171 760 318 892 412 78 55 150 130
245 252 57 74 351 497 535 770 323 479 516 767 532 791 16 25 15 27 -9 53 -51
55 -19 161 65 219 26 18 110 24 110 7 0 -5 15 -16 33 -24 38 -15 84 -66 93
-102 4 -14 4 -43 1 -65 l-5 -39 186 -180 c103 -99 190 -180 194 -180 4 0 8 9
8 20 0 15 7 20 28 20 15 0 32 -4 37 -9 6 -5 24 -12 42 -16 26 -5 34 -2 46 17
329 539 303 487 277 535 -25 46 -25 76 -1 129 54 119 205 131 271 21 36 -59
18 -166 -33 -202 -20 -14 -20 -18 -8 -142 54 -567 271 -949 671 -1183 97 -57
190 -95 329 -135 169 -48 303 -66 505 -65 430 0 827 102 1286 329 239 118 498
279 656 408 38 32 39 32 9 24 -16 -5 -66 -26 -110 -46 -310 -143 -697 -254
-1035 -297 -159 -20 -660 -17 -819 6 -184 25 -387 76 -516 128 -143 59 -268
127 -363 200 -120 92 -282 253 -282 281 0 8 -9 22 -20 32 -26 24 -65 92 -74
130 -4 17 -15 39 -25 50 -62 70 -87 252 -75 540 7 174 21 233 75 310 15 22 30
55 34 72 4 18 19 43 35 56 15 13 39 42 54 65 14 23 36 46 48 53 13 6 32 22 43
36 31 37 156 106 275 151 70 26 211 37 317 23 94 -12 303 -80 383 -124 64 -36
98 -63 216 -174 125 -119 135 -113 45 23 -291 440 -746 663 -1271 623z m-4676
-3091 c-1 -18 0 -27 3 -20 5 14 33 17 33 3 0 -10 -176 -92 -202 -94 -10 -1
-18 -6 -18 -11 0 -5 -3 -7 -6 -4 -3 4 -1 15 5 27 8 14 8 22 -1 27 -7 5 -8 2
-3 -7 6 -11 5 -12 -5 -2 -8 7 -11 15 -8 18 4 5 199 95 204 95 1 0 0 -15 -2
-32z"/>
<path d="M5000 9129 c0 -6 5 -7 10 -4 6 3 10 0 10 -8 0 -9 9 -14 24 -13 13 0
22 5 19 9 -3 5 -12 6 -20 3 -10 -4 -13 -2 -10 7 3 8 -3 13 -14 14 -10 1 -19
-3 -19 -8z"/>
<path d="M4680 9110 c18 -12 30 -13 30 -2 0 4 -10 9 -22 9 -18 2 -20 0 -8 -7z"/>
<path d="M4956 9104 c-5 -14 -9 -14 -23 -3 -10 8 -14 9 -10 2 4 -6 3 -14 -2
-18 -10 -6 -4 -35 8 -35 3 0 11 10 16 23 6 12 15 21 21 20 6 -1 11 5 11 13 0
19 -13 18 -21 -2z"/>
<path d="M4971 9071 c-18 -14 -21 -20 -10 -24 8 -3 2 -6 -13 -6 -27 -1 -41
-21 -15 -21 15 0 57 29 43 30 -5 0 -1 9 9 20 22 25 17 25 -14 1z"/>
<path d="M7065 9080 c3 -5 8 -10 11 -10 2 0 4 5 4 10 0 6 -5 10 -11 10 -5 0
-7 -4 -4 -10z"/>
<path d="M4170 8880 c-9 -6 -10 -10 -3 -10 6 0 15 5 18 10 8 12 4 12 -15 0z"/>
<path d="M4302 8765 c-21 -20 -22 -23 -7 -29 12 -4 16 -2 12 8 -4 9 1 16 13
18 12 2 17 8 12 14 -5 7 -15 4 -30 -11z"/>
<path d="M4214 8772 c3 -5 0 -13 -6 -15 -9 -4 -10 -6 -1 -6 17 -1 25 16 12 25
-7 4 -9 3 -5 -4z"/>
<path d="M4219 8733 c-13 -16 -12 -17 4 -4 9 7 17 15 17 17 0 8 -8 3 -21 -13z"/>
<path d="M4159 8667 c29 -32 31 -33 24 -7 -3 12 -8 18 -11 15 -3 -2 -12 1 -21
7 -9 7 -5 0 8 -15z"/>
<path d="M4375 8681 c-6 -11 13 -26 22 -17 4 3 1 6 -6 6 -7 0 -9 5 -6 10 3 6
4 10 1 10 -3 0 -7 -4 -11 -9z"/>
<path d="M4152 8631 c-11 -7 -11 -9 2 -14 10 -4 16 -1 16 8 0 17 -1 17 -18 6z"/>
<path d="M5503 7515 c-158 -262 -160 -266 -150 -303 14 -53 2 -105 -34 -143
l-30 -33 26 -75 c62 -177 161 -355 288 -517 66 -83 78 -94 144 -124 168 -75
345 -211 459 -353 65 -80 68 -82 168 -123 185 -77 574 -174 583 -147 3 8 12 9
27 3 12 -4 38 -5 57 0 19 4 28 8 22 9 -7 1 -13 5 -13 11 0 5 7 6 17 3 10 -4
14 -2 10 4 -3 5 0 10 8 10 8 0 15 -8 15 -18 0 -10 5 -21 11 -25 8 -5 10 1 6
19 -6 22 -4 24 13 20 12 -3 20 0 20 7 0 7 8 9 23 4 12 -3 19 -3 15 1 -12 12
-59 15 -52 3 4 -7 2 -8 -4 -4 -18 11 -14 33 6 38 10 3 23 -1 30 -9 14 -14 36
-8 26 8 -3 5 -9 7 -14 4 -4 -3 -7 2 -6 10 2 16 15 21 18 8 1 -5 8 -15 16 -23
10 -9 11 -15 3 -18 -16 -5 -14 -22 3 -22 8 0 13 8 12 18 -2 9 2 20 8 24 7 5 3
8 -8 8 -11 0 -16 3 -13 7 4 3 2 12 -4 19 -8 9 -5 11 10 7 12 -3 18 -10 14 -15
-3 -6 0 -9 8 -6 8 3 14 12 14 22 0 9 11 22 24 29 13 7 25 20 27 30 1 10 -2 14
-8 10 -7 -4 -9 2 -5 16 5 19 3 20 -10 9 -14 -12 -15 -11 -5 9 17 31 15 46 -6
41 -11 -3 -19 0 -19 7 0 19 31 11 42 -12 6 -11 16 -18 24 -15 9 3 4 12 -15 27
-31 24 -27 47 3 24 15 -11 16 -11 6 0 -9 11 -8 17 4 29 10 10 13 25 9 46 -3
17 -3 26 2 20 5 -9 11 -8 20 2 8 9 9 14 2 14 -6 0 -8 5 -4 12 4 7 3 8 -5 4 -6
-4 -19 -2 -27 5 -10 8 -21 9 -37 2 -25 -11 -50 -6 -41 8 3 5 1 9 -4 9 -6 0
-12 -7 -16 -15 -3 -8 -11 -15 -18 -14 -10 0 -10 2 0 6 37 15 -6 34 -50 22 -23
-6 -28 -4 -28 9 0 14 -2 15 -9 2 -6 -8 -8 -17 -6 -20 2 -4 -2 -7 -9 -7 -9 0
-12 7 -8 16 5 14 3 14 -11 2 -17 -13 -18 -12 -21 11 -1 14 -26 24 -26 10 0
-11 -52 -3 -60 9 -5 7 -49 19 -78 21 -7 1 -11 7 -8 15 6 16 -6 17 -21 2 -8 -8
-13 -7 -18 2 -6 8 -4 10 5 4 9 -5 11 -4 6 3 -4 7 -14 12 -22 12 -8 0 -12 -4
-9 -10 3 -6 -1 -7 -10 -4 -9 4 -13 9 -10 12 3 3 -41 22 -98 42 -415 146 -705
413 -863 795 -79 191 -104 310 -139 648 -5 45 -10 57 -24 57 -12 0 -67 -83
-178 -265z m1805 -1420 c-3 -3 -9 2 -12 12 -6 14 -5 15 5 6 7 -7 10 -15 7 -18z
m-20 -13 c2 -7 -2 -10 -12 -6 -9 3 -16 11 -16 16 0 13 23 5 28 -10z m17 -48
c-7 -8 -16 -14 -18 -14 -4 0 -2 24 2 37 1 1 8 0 16 -3 12 -5 12 -8 0 -20z
m-82 -75 c-6 -6 -9 -18 -6 -25 3 -8 1 -14 -5 -14 -6 0 -9 6 -8 13 2 16 16 37
24 37 3 0 1 -5 -5 -11z"/>
<path d="M4685 7570 c-4 -6 -11 -8 -16 -5 -5 4 -9 -6 -10 -22 -3 -96 -8 -1283
-5 -1283 2 0 45 20 97 44 115 53 229 90 329 105 98 16 308 14 393 -3 37 -7 67
-11 67 -8 0 2 -13 21 -29 41 -94 119 -199 310 -265 483 -31 81 -41 97 -62 102
-69 18 -121 96 -110 165 l6 38 -171 158 c-202 187 -216 199 -224 185z"/>
<path d="M9319 6953 c-13 -16 -12 -17 4 -4 16 13 21 21 13 21 -2 0 -10 -8 -17
-17z"/>
<path d="M9119 6812 c-1 -4 -1 -11 0 -15 1 -5 -3 -6 -8 -3 -10 6 -208 -120
-203 -129 6 -14 0 -25 -14 -25 -14 0 -15 2 -3 17 13 15 11 15 -18 -1 -37 -18
-43 -27 -14 -19 10 2 26 -4 36 -14 10 -10 23 -18 29 -18 6 0 10 -8 8 -18 -2
-9 3 -18 10 -19 7 0 20 -2 28 -3 8 -1 22 3 30 9 8 6 4 -2 -9 -17 -28 -31 -41
-34 -41 -11 0 14 -2 15 -17 3 -11 -10 -14 -10 -9 -1 12 19 -3 35 -21 21 -11
-10 -16 -10 -22 0 -6 10 -10 9 -14 -3 -4 -9 -1 -16 5 -16 6 0 8 -3 5 -6 -4 -4
-13 -2 -20 5 -8 6 -22 9 -31 5 -19 -7 -20 -1 -5 29 9 18 9 20 -2 10 -7 -7 -22
-13 -33 -13 -20 0 -20 0 0 -14 10 -8 16 -18 11 -22 -4 -4 -7 -1 -8 7 -1 8 -5
3 -9 -11 l-8 -25 -1 24 c-1 24 -1 24 -23 5 -19 -15 -20 -16 -9 -1 19 24 2 21
-27 -5 -14 -13 -22 -18 -18 -11 9 16 -13 28 -27 14 -9 -9 -7 -10 7 -5 14 5 17
4 12 -4 -4 -7 0 -15 9 -18 10 -4 15 -14 12 -26 -4 -12 -1 -18 6 -15 7 3 11 9
10 15 -1 5 7 12 17 15 11 3 20 1 20 -4 0 -5 7 -9 16 -9 10 0 12 -4 7 -12 -4
-7 -6 -21 -5 -30 2 -9 -6 -21 -16 -27 -15 -8 -23 -6 -36 8 -9 10 -14 21 -11
24 3 4 -1 2 -8 -4 -9 -9 -9 -12 1 -16 6 -3 12 -9 12 -14 0 -6 -4 -8 -8 -5 -4
2 -14 0 -22 -6 -12 -8 -12 -9 3 -4 11 3 17 0 17 -10 0 -9 -5 -12 -12 -8 -6 4
-8 3 -4 -4 3 -6 -1 -18 -10 -26 -8 -9 -12 -16 -7 -16 14 0 29 14 37 35 5 13
10 15 13 8 3 -7 14 -13 24 -13 11 0 18 -4 15 -9 -4 -5 4 -7 16 -3 20 5 21 4 9
-11 -7 -9 -18 -14 -25 -10 -8 4 -8 3 0 -6 6 -7 20 -13 30 -13 13 -1 21 -10 22
-26 2 -20 0 -22 -13 -12 -8 6 -19 9 -25 5 -6 -4 -16 -2 -23 4 -8 6 -18 6 -27
1 -12 -7 -12 -10 3 -16 9 -3 26 -4 38 -1 13 4 19 1 16 -6 -3 -7 -10 -11 -16
-9 -6 1 -11 -3 -11 -10 0 -6 -9 -3 -20 7 -16 14 -22 15 -35 5 -8 -7 -12 -17
-8 -24 4 -6 -1 -4 -12 4 -15 13 -16 15 -2 18 8 2 18 10 21 18 3 8 2 13 -2 10
-4 -2 -14 -1 -22 4 -11 7 -18 2 -27 -18 -11 -23 -12 -24 -7 -3 4 15 2 21 -4
17 -6 -3 -13 -2 -16 3 -4 5 -1 13 5 17 8 5 9 3 4 -7 -5 -8 -4 -11 0 -7 5 5 9
19 11 32 3 27 -27 41 -56 26 -10 -5 -19 -7 -22 -5 -3 3 -5 -2 -5 -10 0 -8 3
-13 5 -10 3 3 11 0 18 -6 8 -7 14 -7 19 1 3 5 11 10 16 10 6 0 3 -7 -5 -16 -9
-8 -16 -20 -16 -25 0 -15 -15 -10 -38 11 l-22 21 0 -22 c0 -12 -6 -96 -14
-188 -18 -209 -18 -210 5 -180 10 13 19 19 19 12 0 -17 30 -4 30 13 0 8 5 14
11 14 5 0 7 -4 4 -10 -10 -16 0 -12 25 10 12 11 27 17 31 14 5 -3 9 0 9 6 0 6
4 9 8 6 5 -3 18 4 30 14 12 11 27 20 34 20 7 0 32 13 55 29 31 21 39 31 30 40
-8 8 -7 11 6 11 20 0 22 20 5 39 -8 9 -8 11 -2 8 14 -8 27 20 14 28 -15 10
-39 -6 -33 -22 4 -11 2 -14 -5 -9 -7 4 -12 14 -12 22 0 8 -4 12 -10 9 -15 -9
-12 10 8 44 16 28 21 30 66 28 34 -1 50 2 54 12 3 9 0 11 -8 6 -9 -5 -11 -4
-6 4 4 6 12 8 18 5 8 -5 9 -1 5 10 -5 14 -3 15 12 6 15 -7 20 -6 25 7 4 9 1
21 -5 27 -9 8 -10 8 -5 -1 5 -9 -1 -14 -16 -15 -37 -2 -42 -3 -57 -12 -11 -7
-12 -6 -6 5 8 12 6 12 -9 0 -13 -11 -14 -16 -4 -22 6 -4 16 -5 20 -3 4 3 5 -3
1 -12 -4 -10 -8 -13 -10 -7 -3 7 -10 10 -17 7 -8 -3 -12 6 -11 26 0 27 6 35
28 31 14 -2 7 18 -10 28 -16 8 -15 11 10 20 29 11 32 28 7 48 -13 10 -11 11 8
6 12 -3 22 -10 22 -17 0 -6 12 -19 26 -29 20 -15 28 -16 40 -6 8 7 14 8 13 3
-4 -23 2 -45 11 -39 6 4 7 11 4 17 -4 6 1 8 16 3 15 -5 20 -4 16 4 -4 6 -3 11
3 11 5 0 12 -6 14 -12 3 -8 6 -6 6 4 1 14 6 13 27 -8 24 -25 26 -25 45 -8 14
13 22 15 31 6 8 -8 15 -7 26 5 13 13 13 16 1 25 -11 7 -9 9 7 5 15 -3 21 0 20
12 0 9 -5 19 -11 23 -6 4 -1 8 10 9 l20 0 -20 9 c-18 8 -19 9 -1 9 12 1 16 6
13 16 -4 8 -2 17 3 20 6 4 14 -5 20 -19 5 -14 12 -26 16 -26 3 0 4 6 1 13 -3
7 3 13 13 13 10 0 16 -4 14 -8 -10 -16 14 -7 31 12 10 11 24 20 32 20 8 0 12
4 9 9 -3 4 14 26 38 48 30 27 41 44 34 51 -6 6 -6 12 3 17 8 5 10 4 5 -3 -4
-7 -2 -12 5 -12 7 0 9 10 7 25 -3 13 -2 22 2 20 4 -2 7 11 7 30 0 40 -4 42
-24 18 -13 -16 -13 -15 -3 6 10 20 9 27 -9 44 -12 12 -21 16 -21 9 0 -6 6 -12
12 -12 7 0 3 -9 -9 -21 -25 -26 -39 -19 -48 21 -4 17 -11 28 -15 25 -5 -3 -7
-12 -3 -20 3 -8 0 -15 -7 -15 -6 0 -9 -4 -6 -9 3 -5 -1 -11 -9 -15 -8 -3 -14
-2 -14 2 3 19 -2 23 -16 12 -13 -11 -14 -10 -9 5 5 13 4 16 -4 11 -7 -4 -12
-2 -12 4 0 6 8 10 18 8 12 -2 18 5 20 22 2 18 0 21 -7 11 -5 -8 -18 -12 -29
-9 -21 6 -43 -23 -23 -30 5 -2 7 -10 4 -19 -5 -12 -3 -14 7 -8 9 5 11 4 6 -4
-4 -6 -11 -9 -16 -6 -5 3 -14 -3 -20 -12 -11 -17 -11 -17 -6 0 6 19 -10 24
-16 5 -6 -17 -28 0 -27 20 0 14 2 14 8 -2 7 -18 8 -18 14 -2 6 15 10 16 22 6
12 -10 15 -9 15 4 0 11 -5 14 -12 10 -8 -5 -9 -1 -5 12 7 18 6 18 -7 1 -12
-15 -15 -16 -26 -2 -11 13 -10 14 2 10 17 -7 45 21 34 33 -4 4 -16 8 -27 8
-10 1 -20 2 -21 3 -9 7 -48 10 -49 3z m27 -61 c-4 -5 0 -11 6 -14 10 -3 10 -8
-1 -18 -8 -8 -11 -9 -7 -2 3 6 2 14 -4 18 -13 8 -13 25 1 25 5 0 8 -4 5 -9z
m193 -62 c-7 -4 -16 -6 -20 -3 -4 2 -9 -1 -11 -8 -3 -8 -7 -6 -11 5 -6 16 8
23 36 18 4 0 8 9 8 22 2 21 2 21 6 -2 3 -13 -1 -27 -8 -32z m-144 -17 c-3 -3
-11 0 -18 7 -9 10 -8 11 6 5 10 -3 15 -9 12 -12z m45 -14 c0 -6 -3 -8 -7 -5
-3 4 -12 2 -20 -4 -8 -8 -13 -8 -13 -1 0 10 15 19 33 21 4 1 7 -4 7 -11z
m-265 -39 c11 -17 2 -18 -19 -3 -17 12 -17 14 -4 14 9 0 20 -5 23 -11z m425
-3 c0 -2 -8 -10 -17 -17 -16 -13 -17 -12 -4 4 13 16 21 21 21 13z m-229 -43
c10 -11 10 -14 2 -9 -7 4 -13 3 -13 -2 0 -6 -7 -13 -16 -16 -10 -4 -13 -2 -7
7 4 6 8 15 9 20 4 22 7 22 25 0z m-95 -2 c12 10 13 8 7 -7 -4 -10 -12 -24 -18
-31 -9 -8 -12 -3 -12 20 0 18 2 26 5 19 3 -10 7 -10 18 -1z m-46 -54 c-10 -9
-11 -9 -6 1 4 7 1 15 -9 18 -12 5 -13 9 -3 21 11 13 14 12 22 -6 7 -15 6 -25
-4 -34z m265 3 c3 -5 1 -10 -4 -10 -6 0 -11 5 -11 10 0 6 2 10 4 10 3 0 8 -4
11 -10z m-185 -5 c0 -2 -9 -9 -20 -15 -12 -6 -20 -7 -20 -1 0 5 8 12 18 14 9
3 18 5 20 6 1 0 2 -1 2 -4z m-205 -37 c5 4 5 2 2 -5 -4 -6 -17 -9 -29 -5 -12
3 -17 7 -10 10 7 2 10 9 6 15 -3 7 1 4 9 -5 8 -10 18 -14 22 -10z m150 -3 c0
-10 -6 -20 -12 -22 -7 -3 -13 3 -13 12 0 9 5 13 10 10 6 -3 10 -2 10 4 0 5 -5
12 -10 14 -6 3 -5 4 2 3 7 -2 13 -11 13 -21z m85 15 c0 -5 -5 -10 -11 -10 -5
0 -7 5 -4 10 3 6 8 10 11 10 2 0 4 -4 4 -10z m-155 -11 c10 -15 -1 -23 -20
-15 -9 3 -13 10 -10 16 8 13 22 13 30 -1z m139 -17 c3 -5 -1 -9 -9 -9 -8 0
-12 4 -9 9 3 4 7 8 9 8 2 0 6 -4 9 -8z m-134 -19 c0 -5 -42 -24 -59 -28 -10
-2 -17 4 -18 14 -1 13 7 16 38 16 21 0 39 -1 39 -2z m-121 -51 c-8 -3 -19 -9
-26 -14 -8 -6 -11 -2 -9 16 2 14 -1 23 -6 20 -5 -3 -7 -12 -4 -20 3 -7 1 -16
-4 -19 -5 -3 -6 -13 -3 -23 4 -9 -7 -2 -25 16 -32 33 -38 43 -24 40 4 0 14 1
22 5 35 13 46 13 69 -2 17 -11 20 -16 10 -19z m141 15 c0 -5 8 -3 18 4 14 11
13 10 -2 -9 -21 -24 -37 -29 -33 -9 1 6 -4 11 -11 9 -8 -1 -11 1 -8 6 7 12 36
11 36 -1z m75 -27 c3 -5 1 -10 -4 -10 -6 0 -11 5 -11 10 0 6 2 10 4 10 3 0 8
-4 11 -10z m-245 -25 c7 -9 8 -15 2 -15 -5 0 -12 7 -16 15 -3 8 -4 15 -2 15 2
0 9 -7 16 -15z m-104 -117 c4 -7 3 -8 -4 -4 -7 4 -12 2 -12 -5 0 -7 -3 -10 -6
-6 -6 5 3 27 11 27 2 0 7 -5 11 -12z m24 -28 c-13 -11 -26 -18 -29 -14 -3 3 5
14 19 24 32 24 40 16 10 -10z"/>
<path d="M9388 6803 c6 -2 18 -2 25 0 6 3 1 5 -13 5 -14 0 -19 -2 -12 -5z"/>
<path d="M3895 6598 c-191 -284 -407 -590 -474 -672 -32 -39 -86 -97 -119
-128 -59 -56 -60 -58 -36 -64 14 -4 76 1 137 11 144 22 463 22 587 0 47 -8
108 -15 137 -15 l51 0 38 68 c84 152 198 288 313 373 l31 23 0 174 0 175 -24
-26 c-24 -26 -25 -26 -28 -5 -2 12 -10 24 -18 26 -13 4 -13 3 -2 -10 10 -13
10 -18 1 -24 -7 -4 -10 -3 -6 2 3 5 -1 17 -8 27 -13 18 -14 18 -24 -1 -13 -25
-42 -22 -52 4 -8 20 -10 15 -13 -30 -1 -19 -7 -30 -18 -32 -21 -3 -22 1 -9 25
15 27 -1 42 -38 35 -21 -4 -28 -10 -20 -14 7 -5 19 -6 28 -3 14 4 14 3 1 -6
-13 -9 -13 -11 2 -11 12 0 15 -5 11 -15 -7 -21 -38 -14 -37 8 1 12 -6 17 -28
17 -17 0 -27 4 -23 10 4 6 11 7 17 4 7 -4 8 -2 4 5 -6 8 -12 9 -20 2 -7 -6
-16 -7 -20 -3 -4 4 -14 -2 -22 -12 -8 -11 -14 -14 -14 -7 0 8 -7 10 -20 6 -11
-4 -20 -2 -20 4 0 6 -5 11 -12 11 -9 0 -9 -3 -1 -11 13 -13 6 -42 -8 -33 -5 3
-9 14 -9 25 0 17 -3 18 -21 8 -15 -8 -19 -8 -15 0 4 6 0 11 -8 11 -9 0 -15 5
-13 11 1 6 -4 14 -11 16 -7 3 -10 -1 -6 -10 3 -8 2 -17 -3 -20 -4 -3 -9 36
-11 87 -1 50 -5 110 -10 134 l-7 43 -130 -193z m345 -88 c0 -5 -2 -10 -4 -10
-3 0 -8 5 -11 10 -3 6 -1 10 4 10 6 0 11 -4 11 -10z m10 -30 c-20 -13 -40 -12
-40 1 0 6 7 9 15 6 8 -4 17 -2 21 4 3 6 9 8 12 4 4 -3 0 -10 -8 -15z m40 10
c0 -5 -5 -10 -11 -10 -5 0 -7 5 -4 10 3 6 8 10 11 10 2 0 4 -4 4 -10z m130 6
c0 -11 -19 -15 -25 -6 -3 5 1 10 9 10 9 0 16 -2 16 -4z m-310 -52 c0 -2 -9 0
-20 6 -11 6 -20 13 -20 16 0 2 9 0 20 -6 11 -6 20 -13 20 -16z m115 6 c-11 -5
-27 -9 -35 -9 -13 -1 -13 0 0 9 8 5 24 9 35 9 l20 0 -20 -9z"/>
<path d="M9368 6773 c7 -3 16 -2 19 1 4 3 -2 6 -13 5 -11 0 -14 -3 -6 -6z"/>
<path d="M4066 6642 c-3 -5 1 -9 9 -9 8 0 12 4 9 9 -3 4 -7 8 -9 8 -2 0 -6 -4
-9 -8z"/>
<path d="M8784 6604 c-18 -14 -18 -15 4 -4 12 6 22 13 22 15 0 8 -5 6 -26 -11z"/>
<path d="M8740 6580 c-9 -6 -10 -10 -3 -10 6 0 15 5 18 10 8 12 4 12 -15 0z"/>
<path d="M8826 6571 c-4 -5 3 -7 14 -4 23 6 26 13 6 13 -8 0 -17 -4 -20 -9z"/>
<path d="M4422 6564 c4 -4 3 -14 -2 -24 -6 -12 -5 -17 6 -17 8 0 13 6 10 13
-3 7 0 14 7 17 6 2 2 7 -8 11 -11 4 -16 4 -13 0z"/>
<path d="M8645 6480 c-16 -7 -17 -9 -3 -9 9 -1 20 4 23 9 7 11 7 11 -20 0z"/>
<path d="M8742 6468 c-5 -7 -6 -22 -3 -32 7 -19 8 -19 16 0 12 29 14 44 5 44
-4 0 -12 -6 -18 -12z"/>
<path d="M8595 6460 c-3 -6 1 -7 9 -4 18 7 21 14 7 14 -6 0 -13 -4 -16 -10z"/>
<path d="M8659 6451 c11 -7 10 -11 -5 -20 -11 -6 -14 -11 -8 -11 6 0 17 6 23
13 11 14 5 27 -13 27 -6 0 -5 -4 3 -9z"/>
<path d="M8635 6398 c-11 -7 -26 -12 -34 -13 -8 0 -15 -6 -17 -13 -1 -7 0 -8
2 -3 3 6 11 8 17 6 7 -3 23 4 37 15 28 22 25 26 -5 8z"/>
<path d="M8657 6377 c-3 -8 1 -14 8 -14 7 0 11 6 8 14 -3 7 -6 13 -8 13 -2 0
-5 -6 -8 -13z"/>
<path d="M8899 6373 c-1 -5 -1 -11 0 -15 0 -5 -4 -8 -11 -8 -6 0 -8 -3 -5 -6
8 -8 37 14 37 27 0 11 -20 12 -21 2z"/>
<path d="M9008 6333 c7 -3 16 -2 19 1 4 3 -2 6 -13 5 -11 0 -14 -3 -6 -6z"/>
<path d="M9030 6291 c0 -6 4 -13 10 -16 6 -3 7 1 4 9 -7 18 -14 21 -14 7z"/>
<path d="M8817 6223 c5 -13 34 -33 48 -33 3 0 0 6 -7 14 -7 8 -16 12 -20 9 -5
-2 -8 0 -8 6 0 5 6 11 13 14 6 3 2 4 -9 4 -14 -1 -20 -6 -17 -14z"/>
<path d="M5105 6206 c-153 -26 -276 -76 -405 -167 -178 -125 -316 -306 -359
-469 -7 -25 -18 -67 -25 -95 -7 -27 -21 -68 -31 -90 -28 -62 -27 -272 2 -340
39 -94 61 -160 67 -197 4 -20 24 -63 45 -95 21 -32 43 -76 49 -99 7 -23 27
-61 46 -86 19 -25 38 -58 42 -74 3 -16 25 -54 49 -85 23 -30 48 -72 54 -92 7
-20 25 -46 41 -57 15 -11 35 -39 45 -62 9 -24 32 -59 50 -78 19 -19 41 -52 50
-72 8 -21 28 -47 45 -59 16 -12 36 -39 44 -60 8 -21 33 -54 56 -75 22 -20 40
-43 40 -51 0 -7 18 -33 40 -56 22 -24 43 -53 47 -64 4 -11 44 -62 87 -113 l79
-93 49 54 c27 30 58 72 68 94 10 22 31 52 45 65 15 14 36 43 46 66 11 22 33
51 50 63 16 12 37 40 45 61 9 21 31 51 50 65 18 14 42 45 52 69 11 23 33 52
49 64 17 12 34 37 41 60 7 23 28 53 52 75 22 20 40 45 40 56 0 12 15 38 34 58
18 21 45 64 60 95 15 32 43 76 62 99 19 22 34 48 34 56 0 24 49 119 71 139 10
9 19 29 19 43 0 14 9 46 20 70 11 24 20 50 20 57 0 8 14 39 31 69 l30 54 -3
248 -3 248 -37 89 c-55 130 -121 230 -218 327 -136 137 -290 227 -461 269
-108 27 -295 34 -404 16z m274 -471 c242 -57 415 -293 396 -538 -14 -193 -119
-348 -290 -432 -294 -145 -644 24 -720 347 -42 180 15 370 150 497 130 121
294 166 464 126z"/>
<path d="M5183 5481 c-74 -25 -117 -63 -149 -128 -77 -157 5 -332 177 -373
102 -25 223 26 276 117 25 43 28 58 28 133 0 68 -5 93 -22 126 -30 57 -97 111
-157 129 -63 19 -89 18 -153 -4z"/>
<path d="M6908 6213 c7 -3 16 -2 19 1 4 3 -2 6 -13 5 -11 0 -14 -3 -6 -6z"/>
<path d="M8862 6159 c-16 -25 -15 -30 3 -23 8 4 13 10 10 14 -3 5 0 10 7 12 7
3 8 7 2 11 -5 3 -15 -3 -22 -14z"/>
<path d="M7259 5808 c-10 -19 -3 -44 11 -45 13 -1 17 5 16 23 0 13 -7 24 -13
24 -7 0 -14 -1 -14 -2z"/>
<path d="M6346 5734 c9 -22 27 -68 39 -103 13 -34 27 -67 32 -71 4 -4 94 -10
198 -13 113 -4 182 -2 170 3 -19 8 -19 9 3 9 12 1 22 -2 22 -7 0 -8 226 -4
250 5 8 3 38 5 65 5 l50 0 -60 9 c-33 5 -68 8 -77 5 -10 -2 -18 0 -18 6 0 5
-6 8 -12 5 -7 -2 -12 -10 -10 -16 1 -7 -2 -10 -8 -6 -6 3 -7 11 -4 17 5 7 0 9
-14 6 -12 -4 -22 -3 -22 1 0 4 -33 14 -72 21 -132 23 -375 94 -531 156 -18 6
-18 5 -1 -32z m580 -156 c-4 6 -3 12 2 12 6 0 12 -7 16 -15 4 -11 -1 -15 -18
-15 -13 0 -23 6 -23 15 0 12 3 12 16 2 12 -9 13 -9 7 1z"/>
<path d="M7259 5745 c-1 -3 -2 -8 -3 -12 -1 -5 -5 -14 -10 -21 -4 -7 -5 -16
-2 -19 3 -4 6 -1 6 6 0 7 4 10 9 7 5 -3 11 1 15 9 3 8 1 15 -5 15 -6 0 -7 5
-4 10 3 6 4 10 1 10 -3 0 -7 -2 -7 -5z"/>
<path d="M7295 5710 c-3 -5 -1 -10 4 -10 6 0 11 5 11 10 0 6 -2 10 -4 10 -3 0
-8 -4 -11 -10z"/>
<path d="M7280 5686 c0 -2 7 -7 16 -10 8 -3 12 -2 9 4 -6 10 -25 14 -25 6z"/>
</g>
</svg>
